# xmcd
#
# Track frame offsets: 
#        150
#        16470
#        33392
#        43320
#        58485
#        71097
#        86947
#        100090
#        112792
#        125020
#        140310
#        152527
#
# Disc length: 2230 seconds
#
# Revision: 0
# Processed by: cddbd v1.5.2PL0 Copyright (c) Steve Scherf et al.
# Submitted via: ExactAudioCopy v0.95b4
#
DISCID=a808b40c
DTITLE=Sir Douglas Quintet - Midnight Sun
DYEAR=1987
DGENRE=Country
TTITLE0=Let's Don't Waste A Minute
TTITLE1=This Time
TTITLE2=High High, Bye Bye
TTITLE3=One More Time
TTITLE4=Someday
TTITLE5=Carol Jane
TTITLE6=Meet Me In Stockholm
TTITLE7=Charisma face
TTITLE8=Be Real
TTITLE9=Little Georgie Baker
TTITLE10=Sugar Bee
TTITLE11=Bad Moon Rising
EXTD=
EXTT0=
EXTT1=
EXTT2=
EXTT3=
EXTT4=
EXTT5=
EXTT6=
EXTT7=
EXTT8=
EXTT9=
EXTT10=
EXTT11=
PLAYORDER=
